<?xml version="1.0" standalone="no"?>
<!DOCTYPE svg PUBLIC "-//W3C//DTD SVG 20010904//EN"
 "http://www.w3.org/TR/2001/REC-SVG-20010904/DTD/svg10.dtd">
<svg version="1.0" xmlns="http://www.w3.org/2000/svg"
 width="250.000000pt" height="250.000000pt" viewBox="0 0 250.000000 250.000000"
 preserveAspectRatio="xMidYMid meet">

<g transform="translate(0.000000,250.000000) scale(0.100000,-0.100000)"
fill="#000000" stroke="none">
<path d="M1621 1840 c-1 -70 -5 -98 -11 -85 -5 11 -9 14 -9 7 -1 -14 -54 -90
-91 -129 -11 -12 -20 -26 -20 -32 0 -5 -13 -23 -30 -41 -16 -18 -30 -39 -30
-47 0 -8 -4 -11 -10 -8 -6 4 -10 -5 -10 -19 0 -15 -5 -25 -12 -24 -7 2 -15 -8
-18 -22 -2 -14 -7 11 -11 55 -3 52 -6 6 -7 -135 -2 -240 -12 -320 -47 -397
-13 -29 -20 -55 -16 -57 25 -16 94 -17 142 -2 69 20 121 67 157 142 l27 59 3
325 c2 179 1 368 0 420 l-4 95 -3 -105z"/>
<path d="M990 1100 c25 -4 36 -8 26 -8 -11 -1 -17 -5 -13 -8 3 -3 -2 -14 -11
-23 -45 -47 -83 -99 -64 -87 6 3 13 2 16 -3 12 -19 -12 -20 -34 -1 -40 34 -38
23 6 -37 13 -17 50 -44 81 -59 51 -24 73 -28 173 -31 111 -4 114 -3 85 13 -73
40 -127 121 -141 211 l-6 43 -82 -2 c-70 -1 -75 -2 -36 -8z"/>
</g>
</svg>
